<svg width="46" height="46" viewBox="0 0 46 46" fill="none" xmlns="http://www.w3.org/2000/svg">
<path d="M0.9 23C0.9 10.7945 10.7945 0.9 23 0.9H45.1V23C45.1 35.2055 35.2055 45.1 23 45.1C10.7945 45.1 0.9 35.2055 0.9 23Z" stroke="#383638" stroke-width="1.8"/>
<path fill-rule="evenodd" clip-rule="evenodd" d="M15.6366 12.3635C15.285 12.0121 14.7149 12.0121 14.3633 12.3635C14.0117 12.7148 14.0117 13.2844 14.3633 13.6357L22.9655 22.2307L14.3633 30.8257C14.0117 31.177 14.0117 31.7466 14.3633 32.098C14.7149 32.4493 15.285 32.4493 15.6366 32.098L24.2388 23.503L32.8243 32.0813C33.1759 32.4326 33.746 32.4326 34.0976 32.0813C34.4492 31.7299 34.4492 31.1603 34.0976 30.809L25.5121 22.2307L34.0976 13.6524C34.4492 13.3011 34.4492 12.7315 34.0976 12.3802C33.746 12.0288 33.1759 12.0288 32.8243 12.3802L24.2388 20.9585L15.6366 12.3635Z" fill="#383638"/>
</svg>
