<svg width="60" height="60" viewBox="0 0 60 60" fill="none" xmlns="http://www.w3.org/2000/svg">
<path d="M1 30C1 13.9837 13.9837 1 30 1H59V30C59 46.0163 46.0163 59 30 59C13.9837 59 1 46.0163 1 30Z" stroke="#E36A00" stroke-width="2"/>
<path fill-rule="evenodd" clip-rule="evenodd" d="M18.7071 17.2929C18.3166 16.9024 17.6834 16.9024 17.2929 17.2929C16.9024 17.6834 16.9024 18.3166 17.2929 18.7071L28.5967 30.0109L17.2929 41.3146C16.9024 41.7051 16.9024 42.3383 17.2929 42.7288C17.6834 43.1194 18.3166 43.1194 18.7071 42.7288L30.0109 31.4251L41.2929 42.7071C41.6834 43.0976 42.3166 43.0976 42.7071 42.7071C43.0976 42.3166 43.0976 41.6834 42.7071 41.2929L31.4251 30.0109L42.7071 18.7288C43.0976 18.3383 43.0976 17.7051 42.7071 17.3146C42.3166 16.9241 41.6834 16.9241 41.2929 17.3146L30.0109 28.5967L18.7071 17.2929Z" fill="#E36A00"/>
</svg>
